// Generation Options: --volume 5 --articulation Vib

<group>
trigger=attack
ampeg_attack=0.004000
ampeg_release=0.100000

<region>
sample=Harmonica-Hohner-Super64/Sustains/Vib/Hohner-Super64_Vib_C2.wav
pitch_keycenter=48
lokey=48
hikey=50
volume=6.155485

<region>
sample=Harmonica-Hohner-Super64/Sustains/Vib/Hohner-Super64_Vib_E2.wav
pitch_keycenter=52
lokey=51
hikey=53
volume=2.601531

<region>
sample=Harmonica-Hohner-Super64/Sustains/Vib/Hohner-Super64_Vib_G2.wav
pitch_keycenter=55
lokey=54
hikey=57
tune=1
volume=5.853160

<region>
sample=Harmonica-Hohner-Super64/Sustains/Vib/Hohner-Super64_Vib_C3.wav
pitch_keycenter=60
lokey=58
hikey=62
volume=8.231031

<region>
sample=Harmonica-Hohner-Super64/Sustains/Vib/Hohner-Super64_Vib_E3.wav
pitch_keycenter=64
lokey=63
hikey=65
tune=1
volume=5.291799

<region>
sample=Harmonica-Hohner-Super64/Sustains/Vib/Hohner-Super64_Vib_G3.wav
pitch_keycenter=67
lokey=66
hikey=69
volume=4.487690

<region>
sample=Harmonica-Hohner-Super64/Sustains/Vib/Hohner-Super64_Vib_C4.wav
pitch_keycenter=72
lokey=70
hikey=74
volume=6.237797

<region>
sample=Harmonica-Hohner-Super64/Sustains/Vib/Hohner-Super64_Vib_E4.wav
pitch_keycenter=76
lokey=75
hikey=77
volume=4.126783

<region>
sample=Harmonica-Hohner-Super64/Sustains/Vib/Hohner-Super64_Vib_G4.wav
pitch_keycenter=79
lokey=78
hikey=81
volume=4.421719

<region>
sample=Harmonica-Hohner-Super64/Sustains/Vib/Hohner-Super64_Vib_C5.wav
pitch_keycenter=84
lokey=82
hikey=86
offset=197
volume=4.245991

<region>
sample=Harmonica-Hohner-Super64/Sustains/Vib/Hohner-Super64_Vib_E5.wav
pitch_keycenter=88
lokey=87
hikey=89
offset=1437
volume=4.487845

<region>
sample=Harmonica-Hohner-Super64/Sustains/Vib/Hohner-Super64_Vib_G5.wav
pitch_keycenter=91
lokey=90
hikey=93
tune=-1
volume=5.561965
ampeg_attack=0.1

<region>
sample=Harmonica-Hohner-Super64/Sustains/Vib/Hohner-Super64_Vib_C6.wav
pitch_keycenter=96
lokey=94
hikey=97
tune=-1
volume=6.068372
ampeg_attack=0.1

<group>
trigger=release
ampeg_attack=0.100000
ampeg_sustain=0
ampeg_decay=0.5

<region>
sample=Harmonica-Hohner-Super64/Releases/Vib/Hohner-Super64_Vib_rel_C2.wav
pitch_keycenter=48
lokey=48
hikey=50
tune=-12
volume=-0.364296

<region>
sample=Harmonica-Hohner-Super64/Releases/Vib/Hohner-Super64_Vib_rel_E2.wav
pitch_keycenter=52
lokey=51
hikey=53
tune=-31
volume=0.431520

<region>
sample=Harmonica-Hohner-Super64/Releases/Vib/Hohner-Super64_Vib_rel_G2.wav
pitch_keycenter=55
lokey=54
hikey=57
tune=-33
volume=1.645683

<region>
sample=Harmonica-Hohner-Super64/Releases/Vib/Hohner-Super64_Vib_rel_C3.wav
pitch_keycenter=60
lokey=58
hikey=62
tune=-9
volume=2.819898

<region>
sample=Harmonica-Hohner-Super64/Releases/Vib/Hohner-Super64_Vib_rel_E3.wav
pitch_keycenter=64
lokey=63
hikey=65
tune=-12
volume=2.104748

<region>
sample=Harmonica-Hohner-Super64/Releases/Vib/Hohner-Super64_Vib_rel_G3.wav
pitch_keycenter=67
lokey=66
hikey=69
volume=1.656009

<region>
sample=Harmonica-Hohner-Super64/Releases/Vib/Hohner-Super64_Vib_rel_C4.wav
pitch_keycenter=72
lokey=70
hikey=74
tune=-1
volume=-2.834073

<region>
sample=Harmonica-Hohner-Super64/Releases/Vib/Hohner-Super64_Vib_rel_E4.wav
pitch_keycenter=76
lokey=75
hikey=77
tune=-15
volume=4.550139

<region>
sample=Harmonica-Hohner-Super64/Releases/Vib/Hohner-Super64_Vib_rel_G4.wav
pitch_keycenter=79
lokey=78
hikey=81
tune=-16
volume=-2.222264

<region>
sample=Harmonica-Hohner-Super64/Releases/Vib/Hohner-Super64_Vib_rel_C5.wav
pitch_keycenter=84
lokey=82
hikey=86
tune=-7
volume=-4.269277

<region>
sample=Harmonica-Hohner-Super64/Releases/Vib/Hohner-Super64_Vib_rel_E5.wav
pitch_keycenter=88
lokey=87
hikey=89
tune=-4
volume=0.829168

<region>
sample=Harmonica-Hohner-Super64/Releases/Vib/Hohner-Super64_Vib_rel_G5.wav
pitch_keycenter=91
lokey=90
hikey=93
tune=-7
volume=7.719509

<region>
sample=Harmonica-Hohner-Super64/Releases/Vib/Hohner-Super64_Vib_rel_C6.wav
pitch_keycenter=96
lokey=94
hikey=97
volume=1.161332

